<?xml version="1.0" encoding="UTF-8"?>
<svg xmlns="http://www.w3.org/2000/svg" width="1920" height="1080" viewBox="0 0 1920 1080">
  <defs>
    <linearGradient id="bg" x1="0" y1="0" x2="0" y2="1">
      <stop offset="0%" stop-color="#f6f9f8"/>
      <stop offset="100%" stop-color="#f3f7f6"/>
    </linearGradient>
  </defs>
  <rect width="1920" height="1080" fill="url(#bg)"/>
  <g fill="none" stroke="#2b2b2b" stroke-width="1.1" stroke-linecap="round" stroke-linejoin="round" opacity="0.35">
    <path d="M30 180 C 210 120, 330 160, 510 110 S 780 50, 990 120 1290 230, 1470 160 1680 80, 1910 150"/>
    <path d="M-40 280 C 140 230, 320 280, 540 250 S 880 200, 1080 260 1370 360, 1550 300 1760 220, 1960 290"/>
    <path d="M10 380 C 190 350, 360 410, 560 370 S 900 300, 1100 360 1390 480, 1600 430 1760 360, 1980 420"/>
    <path d="M-60 500 C 110 470, 300 520, 520 490 S 900 420, 1140 500 1450 630, 1660 570 1820 490, 2020 560"/>
    <path d="M-40 640 C 160 600, 340 660, 560 640 S 960 560, 1180 630 1500 800, 1700 740 1860 650, 2060 720"/>
    <path d="M-80 780 C 120 740, 300 820, 520 790 S 980 690, 1220 760 1560 920, 1780 860 1920 780, 2140 860"/>
  </g>
  <g fill="none" stroke="#2b2b2b" stroke-width="0.9" opacity="0.25">
    <path d="M100 120 C 260 100, 420 120, 600 90 S 880 20, 1080 80 1360 200, 1540 140 1760 60, 1940 110"/>
    <path d="M60 230 C 220 200, 420 240, 640 210 S 980 150, 1200 210 1500 330, 1700 280 1880 190, 2060 260"/>
    <path d="M-20 340 C 160 330, 340 360, 560 340 S 940 260, 1180 340 1500 500, 1720 450 1920 360, 2140 430"/>
    <path d="M-10 460 C 180 440, 360 480, 580 450 S 960 360, 1200 440 1540 610, 1780 560 1980 470, 2200 540"/>
    <path d="M-40 900 C 160 860, 340 940, 560 910 S 980 810, 1220 880 1560 1040, 1780 980 1960 900, 2180 980"/>
  </g>
</svg>
